<?xml version="1.0" encoding="UTF-8"?>
<svg width="47px" height="50px" viewBox="0 0 47 50" version="1.1" xmlns="http://www.w3.org/2000/svg" xmlns:xlink="http://www.w3.org/1999/xlink">
    <!-- Generator: Sketch 51.1 (57501) - http://www.bohemiancoding.com/sketch -->
    <title>logo.bd829034</title>
    <desc>Created with Sketch.</desc>
    <defs></defs>
    <g id="Page-1" stroke="none" stroke-width="1" fill="none" fill-rule="evenodd">
        <g id="logo.bd829034" transform="translate(-1.000000, -1.000000)" fill-rule="nonzero">
            <g id="g10" transform="translate(24.068101, 25.654602) scale(-1, 1) rotate(-180.000000) translate(-24.068101, -25.654602) translate(0.568101, 0.154602)">
                <path d="M20.9556675,14.9963916 C18.0363142,18.2528915 14.664925,21.1317541 11.838225,24.4643074 C11.3869157,24.9807487 11.403565,25.3816247 11.838225,25.8397193 C14.820189,29.0380872 17.9096316,32.1621592 20.9556675,35.3076351 C21.0534808,35.4059684 21.1077621,35.5377444 21.1077621,35.6786951 C21.1077621,35.8203004 21.0534821,35.9514177 20.9556675,36.0497551 L16.4050103,40.6001456 C16.3069303,40.6985456 16.1750316,40.752239 16.0341463,40.752239 C15.8933276,40.752239 15.7614249,40.6985056 15.6641369,40.600799 L0.584961319,25.5243847 C0.380878657,25.319842 0.380878657,24.9868074 0.584961319,24.7822647 L15.6633489,9.70335307 C15.8593036,9.5066784 16.2088596,9.5066784 16.4050103,9.70335307 L20.9556675,14.254273 C21.1597501,14.4588796 21.1597501,14.7917836 20.9556675,14.9963916" id="path30" fill="#60B070"></path>
                <path d="M23.1917914,33.0707898 L15.6436169,25.5237287 C15.5450836,25.4253953 15.4912596,25.2936193 15.4912596,25.1526687 C15.4912596,25.012374 15.5450863,24.8799474 15.6431583,24.7822647 L23.1925794,17.2319915 C23.3882047,17.0358422 23.7377607,17.0358422 23.9339114,17.2319915 L31.4833979,24.7822647 C31.5812112,24.8799447 31.6349685,25.012374 31.6349685,25.1526687 C31.6349685,25.2936193 31.5812085,25.4253913 31.4826112,25.5237287 L23.9344354,33.0714458 C23.8363554,33.1691258 23.7044567,33.2228845 23.5631141,33.2228845 C23.4217701,33.2228845 23.2896048,33.1691245 23.1917914,33.0707898" id="path32" fill="#F79447"></path>
                <path d="M31.4626152,40.6001456 C31.3648019,40.6985456 31.2328992,40.752239 31.0920806,40.752239 C30.9512619,40.752239 30.8193592,40.6985056 30.7215459,40.6001456 L26.170102,36.0497551 C25.9660194,35.8452124 25.9660194,35.5121778 26.170102,35.3076351 C29.0886713,32.0506312 32.4618992,29.1731379 35.2872818,25.8397193 C35.7246764,25.336154 35.7397951,24.9479434 35.2872818,24.4643074 C32.3054859,21.2657554 29.2155499,18.1417982 26.1693153,14.9963916 C25.9652327,14.7917836 25.9652327,14.4588796 26.1693153,14.254273 L30.7215459,9.70335307 C30.9174339,9.5066784 31.2669899,9.5066784 31.4626152,9.70335307 L46.5410042,24.7822647 C46.7455455,24.9868074 46.7455455,25.319842 46.5403482,25.5243847 L31.4626152,40.6001456" id="path34" fill="#4A95C1"></path>
                <path d="M23.1910048,38.0532137 C23.3872207,37.856539 23.7372367,37.856539 23.9318781,38.0525577 L29.5368433,43.6564789 C29.7412539,43.8610122 29.7412539,44.1933989 29.5368433,44.3979322 L23.9326647,50.0018521 C23.8345847,50.1002521 23.7026874,50.1545987 23.5618687,50.1545987 C23.4209834,50.1545987 23.2891461,50.1001987 23.1910048,50.0018521 L17.5865649,44.3979322 C17.3824822,44.1933989 17.3824822,43.8610122 17.5873516,43.6558122 L23.1910048,38.0532137" id="path36" fill="#C95149"></path>
                <path d="M23.9339114,12.2508797 C23.8358314,12.349213 23.7039981,12.4029743 23.5631141,12.4029743 C23.4222941,12.4029743 23.2903914,12.3492143 23.1925794,12.2508797 L17.5885969,6.64689848 C17.3842529,6.44229048 17.3842529,6.10938649 17.5891222,5.90477849 L23.1925794,0.302109301 C23.3882047,0.105434639 23.7377607,0.105434639 23.9339114,0.302109301 L29.5368433,5.90477849 C29.7412539,6.10938649 29.7412539,6.44229048 29.5368433,6.64689848 L23.9339114,12.2508797" id="path38" fill="#755F87"></path>
            </g>
        </g>
    </g>
</svg>